<?xml version="1.0" encoding="utf-8"?>
<!-- Generator: Adobe Illustrator 19.0.0, SVG Export Plug-In . SVG Version: 6.00 Build 0)  -->
<svg version="1.1" id="Layer_1" xmlns="http://www.w3.org/2000/svg" xmlns:xlink="http://www.w3.org/1999/xlink" x="0px" y="0px"
	 viewBox="0 0 77 34" style="enable-background:new 0 0 77 34;" xml:space="preserve">
<style type="text/css">
	.st0{stroke:#000000;stroke-width:0.2;stroke-miterlimit:10;}
	.st1{fill:none;stroke:#000000;stroke-width:2;stroke-linecap:round;stroke-linejoin:round;stroke-miterlimit:10;}
</style>
<g>
	<path class="st0" d="M2.2,24.8c-0.7-0.6-1.1-1.3-1.1-2.3c0-0.9,0.4-1.7,1.1-2.3c0.7-0.6,1.5-0.8,2.5-0.8c0.9,0,1.7,0.2,2.3,0.5
		c0.1-0.7,0.4-1.2,0.9-1.7c0.5-0.4,1.1-0.6,1.8-0.6l-0.1,2c-1,0-1.6,0.3-1.6,1c0.4,0.6,0.7,1.1,0.7,1.7s-0.1,1.1-0.3,1.4
		s-0.5,0.7-0.8,1c-0.7,0.6-1.6,0.9-2.6,0.9c-0.6,0-1.1-0.1-1.6-0.3c-0.5,0.1-0.7,0.4-0.7,0.9c0,0.5,0.5,0.8,1.4,0.8h2.9
		c2,0,3,0.7,3,2.1c0,0.5-0.1,0.9-0.4,1.4c-0.2,0.5-0.6,0.8-1,1.2c-1,0.8-2.2,1.2-3.7,1.2c-1.4,0-2.6-0.3-3.5-0.9
		C0.4,31.5,0,30.8,0,30c0-0.5,0.2-1,0.5-1.3c0.3-0.3,0.8-0.5,1.3-0.6c-0.7-0.4-1.1-1-1.1-1.6c0-0.4,0.1-0.8,0.4-1.1
		C1.4,25.2,1.7,25,2.2,24.8z M3.8,28.6c-1.1,0-1.7,0.5-1.7,1.3c0,0.4,0.2,0.7,0.7,1s1,0.4,1.7,0.4s1.2-0.1,1.5-0.2
		c0.4-0.1,0.7-0.3,0.9-0.4c0.5-0.4,0.8-0.8,0.8-1.3c0-0.2-0.1-0.4-0.2-0.5c-0.2-0.1-0.4-0.2-0.7-0.2H3.8z M6.5,22.6
		c0-0.5-0.1-0.9-0.4-1.2s-0.7-0.5-1.2-0.5c-0.6,0-1,0.2-1.3,0.5c-0.3,0.3-0.4,0.7-0.4,1.2c0,0.5,0.1,0.9,0.4,1.2
		c0.3,0.3,0.7,0.5,1.3,0.5c0.6,0,1-0.2,1.2-0.5C6.4,23.4,6.5,23,6.5,22.6z"/>
	<path class="st0" d="M15,19.4c0.6,0,1.1,0.1,1.7,0.3c0.5,0.2,1,0.5,1.3,0.9c0.8,0.8,1.2,2,1.2,3.5c0,1.5-0.4,2.6-1.2,3.5
		c-0.7,0.8-1.7,1.2-3,1.2s-2.3-0.4-3-1.2c-0.8-0.8-1.2-2-1.2-3.5c0-1.5,0.4-2.7,1.2-3.5C12.8,19.8,13.8,19.4,15,19.4z M17.2,24
		c0-0.9-0.2-1.6-0.5-2.1c-0.4-0.5-0.9-0.7-1.5-0.7s-1.2,0.2-1.6,0.7c-0.4,0.5-0.6,1.2-0.6,2.1s0.2,1.6,0.5,2.1
		c0.4,0.5,0.9,0.7,1.5,0.7c0.6,0,1.2-0.2,1.6-0.7C16.9,25.7,17.2,25,17.2,24z"/>
	<path class="st0" d="M25,19.4c0.6,0,1.1,0.1,1.7,0.3c0.5,0.2,1,0.5,1.3,0.9c0.8,0.8,1.2,2,1.2,3.5c0,1.5-0.4,2.6-1.2,3.5
		c-0.7,0.8-1.7,1.2-3,1.2s-2.3-0.4-3-1.2c-0.8-0.8-1.2-2-1.2-3.5c0-1.5,0.4-2.7,1.2-3.5C22.7,19.8,23.7,19.4,25,19.4z M27.1,24
		c0-0.9-0.2-1.6-0.5-2.1c-0.4-0.5-0.9-0.7-1.5-0.7s-1.2,0.2-1.6,0.7c-0.4,0.5-0.6,1.2-0.6,2.1s0.2,1.6,0.5,2.1
		c0.4,0.5,0.9,0.7,1.5,0.7c0.6,0,1.2-0.2,1.6-0.7C26.9,25.7,27.1,25,27.1,24z"/>
	<path class="st0" d="M37.1,27.1c-0.5,1.1-1.4,1.6-2.5,1.6s-2.1-0.4-2.8-1.3c-0.8-0.9-1.2-2-1.2-3.4s0.4-2.5,1.1-3.3
		c0.7-0.8,1.6-1.2,2.7-1.2c1.1,0,1.9,0.4,2.5,1.3v-4.7h2.1v12.3h-1.7L37.1,27.1z M34.9,21.3c-0.6,0-1.1,0.2-1.5,0.7
		c-0.4,0.5-0.6,1.1-0.6,2c0,0.8,0.2,1.5,0.6,2c0.4,0.5,0.9,0.7,1.5,0.7c0.5,0,1-0.2,1.4-0.6c0.4-0.4,0.6-0.9,0.6-1.6v-1.1
		c0-0.6-0.2-1.1-0.6-1.5C36,21.5,35.5,21.3,34.9,21.3z"/>
	<path class="st0" d="M45.1,23.3c0.7,0,1.5,0.1,2.4,0.3v-0.9c0-0.6-0.1-1.1-0.4-1.4S46.5,21,45.9,21c-0.6,0-1,0.1-1.3,0.3
		c-0.3,0.2-0.4,0.5-0.4,0.9h-2.3c0-1,0.4-1.7,1.1-2.2c0.7-0.4,1.7-0.7,2.9-0.7c1.8,0,3,0.6,3.5,1.9c0.2,0.4,0.3,0.9,0.3,1.5v5.6
		h-1.9l-0.2-1.2c-0.6,0.9-1.4,1.4-2.6,1.4c-1.1,0-2-0.3-2.6-0.8c-0.6-0.5-0.9-1.2-0.9-2s0.3-1.4,1-1.9C43.1,23.5,44,23.3,45.1,23.3z
		 M47.5,25c-0.7-0.2-1.4-0.3-2-0.3c-1.2,0-1.7,0.4-1.7,1.2c0,0.3,0.1,0.6,0.4,0.8c0.3,0.2,0.7,0.4,1.3,0.4s1.1-0.2,1.4-0.6
		C47.3,26.1,47.5,25.6,47.5,25z"/>
</g>
<line class="st1" x1="69.7" y1="1.1" x2="75.9" y2="7.4"/>
</svg>
